NunitoSans-M1000.ufo
<glyph name="five" format="2">
  <advance width="600"/>
  <unicode hex="0035"/>
  <outline>
    <contour>
      <point x="289" y="-12" type="curve" smooth="yes"/>
      <point x="468" y="-12"/>
      <point x="579" y="84"/>
      <point x="579" y="233" type="curve" smooth="yes"/>
      <point x="579" y="369"/>
      <point x="485" y="460"/>
      <point x="350" y="460" type="curve" smooth="yes"/>
      <point x="293" y="460"/>
      <point x="242" y="443"/>
      <point x="211" y="413" type="curve"/>
      <point x="258" y="413" type="line"/>
      <point x="258" y="531" type="line"/>
      <point x="533" y="531" type="line"/>
      <point x="533" y="705" type="line"/>
      <point x="58" y="705" type="line"/>
      <point x="58" y="257" type="line"/>
      <point x="189" y="257" type="line"/>
      <point x="221" y="279"/>
      <point x="254" y="291"/>
      <point x="292" y="291" type="curve" smooth="yes"/>
      <point x="342" y="291"/>
      <point x="375" y="268"/>
      <point x="375" y="227" type="curve" smooth="yes"/>
      <point x="375" y="186"/>
      <point x="342" y="163"/>
      <point x="284" y="163" type="curve" smooth="yes"/>
      <point x="223" y="163"/>
      <point x="158" y="184"/>
      <point x="102" y="220" type="curve"/>
      <point x="38" y="61" type="line"/>
      <point x="91" y="18"/>
      <point x="194" y="-12"/>
    </contour>
  </outline>
</glyph>
<glyph name="B" format="2">
  <advance width="710"/>
  <unicode hex="0042"/>
  <anchor x="353" y="0" name="bottom"/>
  <anchor x="353" y="705" name="top"/>
  <outline>
    <contour>
      <point x="57" y="0" type="line"/>
      <point x="424" y="0" type="line" smooth="yes"/>
      <point x="579" y="0"/>
      <point x="676" y="79"/>
      <point x="676" y="202" type="curve" smooth="yes"/>
      <point x="676" y="294"/>
      <point x="624" y="355"/>
      <point x="529" y="375" type="curve"/>
      <point x="529" y="358" type="line"/>
      <point x="608" y="379"/>
      <point x="657" y="441"/>
      <point x="657" y="523" type="curve" smooth="yes"/>
      <point x="657" y="633"/>
      <point x="569" y="705"/>
      <point x="415" y="705" type="curve" smooth="yes"/>
      <point x="57" y="705" type="line"/>
    </contour>
    <contour>
      <point x="262" y="156" type="line"/>
      <point x="262" y="280" type="line"/>
      <point x="394" y="280" type="line" smooth="yes"/>
      <point x="450" y="280"/>
      <point x="473" y="259"/>
      <point x="473" y="218" type="curve" smooth="yes"/>
      <point x="473" y="177"/>
      <point x="450" y="156"/>
      <point x="394" y="156" type="curve" smooth="yes"/>
    </contour>
    <contour>
      <point x="262" y="436" type="line"/>
      <point x="262" y="549" type="line"/>
      <point x="375" y="549" type="line" smooth="yes"/>
      <point x="431" y="549"/>
      <point x="453" y="533"/>
      <point x="453" y="493" type="curve" smooth="yes"/>
      <point x="453" y="453"/>
      <point x="431" y="436"/>
      <point x="375" y="436" type="curve" smooth="yes"/>
    </contour>
  </outline>
</glyph>
<glyph name="D" format="2">
  <advance width="800"/>
  <unicode hex="0044"/>
  <anchor x="395" y="0" name="bottom"/>
  <anchor x="214" y="358" name="center"/>
  <anchor x="395" y="705" name="top"/>
  <outline>
    <contour>
      <point x="57" y="0" type="line"/>
      <point x="365" y="0" type="line" smooth="yes"/>
      <point x="615" y="0"/>
      <point x="759" y="130"/>
      <point x="759" y="353" type="curve" smooth="yes"/>
      <point x="759" y="575"/>
      <point x="615" y="705"/>
      <point x="365" y="705" type="curve" smooth="yes"/>
      <point x="57" y="705" type="line"/>
    </contour>
    <contour>
      <point x="272" y="174" type="line"/>
      <point x="272" y="531" type="line"/>
      <point x="352" y="531" type="line" smooth="yes"/>
      <point x="476" y="531"/>
      <point x="536" y="475"/>
      <point x="536" y="353" type="curve" smooth="yes"/>
      <point x="536" y="231"/>
      <point x="477" y="174"/>
      <point x="352" y="174" type="curve" smooth="yes"/>
    </contour>
  </outline>
</glyph>
<glyph name="k" format="2">
  <advance width="605"/>
  <unicode hex="006B"/>
  <anchor x="302" y="0" name="bottom"/>
  <anchor x="310" y="705" name="top"/>
  <outline>
    <contour>
      <point x="44" y="0" type="line"/>
      <point x="252" y="0" type="line"/>
      <point x="252" y="198" type="line"/>
      <point x="254" y="198" type="line"/>
      <point x="394" y="0" type="line"/>
      <point x="641" y="0" type="line"/>
      <point x="434" y="295" type="line"/>
      <point x="434" y="227" type="line"/>
      <point x="639" y="494" type="line"/>
      <point x="397" y="494" type="line"/>
      <point x="254" y="302" type="line"/>
      <point x="252" y="302" type="line"/>
      <point x="252" y="705" type="line"/>
      <point x="44" y="705" type="line"/>
    </contour>
  </outline>
</glyph>
<glyph name="l" format="2">
  <advance width="364"/>
  <unicode hex="006C"/>
  <anchor x="203" y="0" name="bottom"/>
  <anchor x="158" y="357" name="center"/>
  <anchor x="402" y="357" name="dot"/>
  <anchor x="148" y="705" name="top"/>
  <anchor x="282" y="705" name="topright"/>
  <outline>
    <contour>
      <point x="253" y="-12" type="curve" smooth="yes"/>
      <point x="288" y="-12"/>
      <point x="319" y="-8"/>
      <point x="348" y="1" type="curve"/>
      <point x="349" y="158" type="line"/>
      <point x="337" y="155"/>
      <point x="323" y="154"/>
      <point x="310" y="154" type="curve" smooth="yes"/>
      <point x="270" y="154"/>
      <point x="252" y="176"/>
      <point x="252" y="212" type="curve" smooth="yes"/>
      <point x="252" y="705" type="line"/>
      <point x="44" y="705" type="line"/>
      <point x="44" y="207" type="line" smooth="yes"/>
      <point x="44" y="59"/>
      <point x="104" y="-12"/>
    </contour>
  </outline>
</glyph>
<glyph name="n" format="2">
  <advance width="618"/>
  <unicode hex="006E"/>
  <anchor x="311" y="0" name="bottom"/>
  <anchor x="311" y="484" name="top"/>
  <outline>
    <contour>
      <point x="44" y="0" type="line"/>
      <point x="252" y="0" type="line"/>
      <point x="252" y="272" type="line" smooth="yes"/>
      <point x="252" y="318"/>
      <point x="280" y="348"/>
      <point x="322" y="348" type="curve" smooth="yes"/>
      <point x="351" y="348"/>
      <point x="368" y="330"/>
      <point x="368" y="279" type="curve" smooth="yes"/>
      <point x="368" y="0" type="line"/>
      <point x="576" y="0" type="line"/>
      <point x="576" y="287" type="line" smooth="yes"/>
      <point x="576" y="436"/>
      <point x="520" y="506"/>
      <point x="403" y="506" type="curve" smooth="yes"/>
      <point x="330" y="506"/>
      <point x="269" y="472"/>
      <point x="236" y="415" type="curve"/>
      <point x="247" y="415" type="line"/>
      <point x="247" y="494" type="line"/>
      <point x="44" y="494" type="line"/>
    </contour>
  </outline>
</glyph>
<glyph name="o" format="2">
  <advance width="616"/>
  <unicode hex="006F"/>
  <anchor x="308" y="0" name="bottom"/>
  <anchor x="308" y="247" name="center"/>
  <anchor x="367" y="0" name="ogonek"/>
  <anchor x="308" y="484" name="top"/>
  <anchor x="380" y="484" name="topright"/>
  <outline>
    <contour>
      <point x="308" y="-12" type="curve" smooth="yes"/>
      <point x="479" y="-12"/>
      <point x="592" y="86"/>
      <point x="592" y="247" type="curve" smooth="yes"/>
      <point x="592" y="408"/>
      <point x="479" y="506"/>
      <point x="308" y="506" type="curve" smooth="yes"/>
      <point x="137" y="506"/>
      <point x="24" y="408"/>
      <point x="24" y="247" type="curve" smooth="yes"/>
      <point x="24" y="86"/>
      <point x="137" y="-12"/>
    </contour>
    <contour>
      <point x="308" y="140" type="curve" smooth="yes"/>
      <point x="265" y="140"/>
      <point x="233" y="168"/>
      <point x="233" y="247" type="curve" smooth="yes"/>
      <point x="233" y="326"/>
      <point x="265" y="354"/>
      <point x="308" y="354" type="curve" smooth="yes"/>
      <point x="351" y="354"/>
      <point x="383" y="326"/>
      <point x="383" y="247" type="curve" smooth="yes"/>
      <point x="383" y="168"/>
      <point x="351" y="140"/>
    </contour>
  </outline>
</glyph>
<glyph name="y" format="2">
  <advance width="549"/>
  <unicode hex="0079"/>
  <anchor x="449" y="0" name="bottom"/>
  <anchor x="275" y="484" name="top"/>
  <outline>
    <contour>
      <point x="66" y="-180" type="line"/>
      <point x="276" y="-180" type="line"/>
      <point x="580" y="494" type="line"/>
      <point x="377" y="494" type="line"/>
      <point x="261" y="204" type="line"/>
      <point x="297" y="204" type="line"/>
      <point x="188" y="494" type="line"/>
      <point x="-29" y="494" type="line"/>
      <point x="189" y="0" type="line"/>
      <point x="189" y="82" type="line"/>
    </contour>
  </outline>
</glyph>
<glyph name="z" format="2">
  <advance width="494"/>
  <unicode hex="007A"/>
  <anchor x="251" y="0" name="bottom"/>
  <anchor x="251" y="484" name="top"/>
  <outline>
    <contour>
      <point x="38" y="0" type="line"/>
      <point x="474" y="0" type="line"/>
      <point x="474" y="152" type="line"/>
      <point x="215" y="152" type="line"/>
      <point x="215" y="99" type="line"/>
      <point x="464" y="362" type="line"/>
      <point x="464" y="494" type="line"/>
      <point x="38" y="494" type="line"/>
      <point x="38" y="342" type="line"/>
      <point x="281" y="342" type="line"/>
      <point x="281" y="388" type="line"/>
      <point x="38" y="132" type="line"/>
    </contour>
  </outline>
</glyph>
<glyph name="braceleft" format="2">
  <advance width="464"/>
  <unicode hex="007B"/>
  <outline>
    <contour>
      <point x="296" y="-180" type="curve" smooth="yes"/>
      <point x="444" y="-180" type="line"/>
      <point x="444" y="-28" type="line"/>
      <point x="385" y="-28" type="line" smooth="yes"/>
      <point x="356" y="-28"/>
      <point x="345" y="-16"/>
      <point x="345" y="14" type="curve" smooth="yes"/>
      <point x="345" y="134" type="line" smooth="yes"/>
      <point x="345" y="200"/>
      <point x="293" y="263"/>
      <point x="239" y="263" type="curve"/>
      <point x="239" y="259" type="line"/>
      <point x="293" y="259"/>
      <point x="345" y="323"/>
      <point x="345" y="389" type="curve" smooth="yes"/>
      <point x="345" y="511" type="line" smooth="yes"/>
      <point x="345" y="541"/>
      <point x="356" y="553"/>
      <point x="385" y="553" type="curve" smooth="yes"/>
      <point x="444" y="553" type="line"/>
      <point x="444" y="705" type="line"/>
      <point x="296" y="705" type="line" smooth="yes"/>
      <point x="197" y="705"/>
      <point x="137" y="645"/>
      <point x="137" y="547" type="curve" smooth="yes"/>
      <point x="137" y="415" type="line" smooth="yes"/>
      <point x="137" y="363"/>
      <point x="124" y="344"/>
      <point x="85" y="340" type="curve" smooth="yes"/>
      <point x="32" y="335" type="line"/>
      <point x="32" y="188" type="line"/>
      <point x="85" y="183" type="line" smooth="yes"/>
      <point x="124" y="179"/>
      <point x="137" y="160"/>
      <point x="137" y="108" type="curve" smooth="yes"/>
      <point x="137" y="-22" type="line" smooth="yes"/>
      <point x="137" y="-120"/>
      <point x="197" y="-180"/>
    </contour>
  </outline>
</glyph>
<glyph name="exclamdown" format="2">
  <advance width="285"/>
  <unicode hex="00A1"/>
  <outline>
    <contour>
      <point x="15" y="-180" type="line"/>
      <point x="270" y="-180" type="line"/>
      <point x="205" y="239" type="line"/>
      <point x="80" y="239" type="line"/>
    </contour>
    <contour>
      <point x="37" y="287" type="line"/>
      <point x="248" y="287" type="line"/>
      <point x="248" y="494" type="line"/>
      <point x="37" y="494" type="line"/>
    </contour>
  </outline>
</glyph>
<glyph name="ordfeminine" format="2">
  <advance width="362"/>
  <unicode hex="00AA"/>
  <outline>
    <contour>
      <point x="132" y="402" type="curve" smooth="yes"/>
      <point x="175" y="402"/>
      <point x="201" y="426"/>
      <point x="219" y="466" type="curve"/>
      <point x="222" y="466" type="line"/>
      <point x="222" y="410" type="line"/>
      <point x="341" y="410" type="line"/>
      <point x="341" y="587" type="line" smooth="yes"/>
      <point x="341" y="673"/>
      <point x="287" y="717"/>
      <point x="175" y="717" type="curve" smooth="yes"/>
      <point x="126" y="717"/>
      <point x="62" y="704"/>
      <point x="28" y="687" type="curve"/>
      <point x="56" y="602" type="line"/>
      <point x="90" y="618"/>
      <point x="134" y="626"/>
      <point x="162" y="626" type="curve" smooth="yes"/>
      <point x="201" y="626"/>
      <point x="215" y="616"/>
      <point x="215" y="593" type="curve" smooth="yes"/>
      <point x="215" y="535" type="line" smooth="yes"/>
      <point x="215" y="502"/>
      <point x="194" y="482"/>
      <point x="169" y="482" type="curve" smooth="yes"/>
      <point x="147" y="482"/>
      <point x="137" y="492"/>
      <point x="137" y="506" type="curve" smooth="yes"/>
      <point x="137" y="525"/>
      <point x="148" y="533"/>
      <point x="195" y="533" type="curve" smooth="yes"/>
      <point x="228" y="533" type="line"/>
      <point x="228" y="593" type="line"/>
      <point x="191" y="593" type="line" smooth="yes"/>
      <point x="62" y="593"/>
      <point x="11" y="568"/>
      <point x="11" y="503" type="curve" smooth="yes"/>
      <point x="11" y="445"/>
      <point x="59" y="402"/>
    </contour>
  </outline>
</glyph>
<glyph name="hbar" format="2">
  <advance width="618"/>
  <unicode hex="0127"/>
  <outline>
    <contour>
      <point x="44" y="0" type="line"/>
      <point x="252" y="0" type="line"/>
      <point x="252" y="252" type="line" smooth="yes"/>
      <point x="252" y="298"/>
      <point x="280" y="328"/>
      <point x="322" y="328" type="curve" smooth="yes"/>
      <point x="351" y="328"/>
      <point x="368" y="310"/>
      <point x="368" y="259" type="curve" smooth="yes"/>
      <point x="368" y="0" type="line"/>
      <point x="576" y="0" type="line"/>
      <point x="576" y="267" type="line" smooth="yes"/>
      <point x="576" y="416"/>
      <point x="520" y="486"/>
      <point x="403" y="486" type="curve" smooth="yes"/>
      <point x="330" y="486"/>
      <point x="269" y="452"/>
      <point x="236" y="395" type="curve"/>
      <point x="252" y="395" type="line"/>
      <point x="252" y="525" type="line"/>
      <point x="432" y="525" type="line"/>
      <point x="432" y="665" type="line"/>
      <point x="252" y="665" type="line"/>
      <point x="252" y="705" type="line"/>
      <point x="44" y="705" type="line"/>
      <point x="44" y="665" type="line"/>
      <point x="-36" y="665" type="line"/>
      <point x="-36" y="525" type="line"/>
      <point x="44" y="525" type="line"/>
    </contour>
  </outline>
</glyph>
<glyph name="gstroke" format="2">
  <advance width="638"/>
  <unicode hex="01E5"/>
  <outline>
    <contour>
      <point x="297" y="-192" type="curve" smooth="yes"/>
      <point x="448" y="-192"/>
      <point x="547" y="-135"/>
      <point x="581" y="-22" type="curve"/>
      <point x="571" y="-33" type="line"/>
      <point x="638" y="-33" type="line"/>
      <point x="638" y="46" type="line"/>
      <point x="586" y="46" type="line"/>
      <point x="592" y="36" type="line"/>
      <point x="594" y="55"/>
      <point x="594" y="65"/>
      <point x="594" y="75" type="curve" smooth="yes"/>
      <point x="594" y="494" type="line"/>
      <point x="391" y="494" type="line"/>
      <point x="391" y="417" type="line"/>
      <point x="400" y="425" type="line"/>
      <point x="378" y="473"/>
      <point x="311" y="506"/>
      <point x="244" y="506" type="curve" smooth="yes"/>
      <point x="115" y="506"/>
      <point x="24" y="419"/>
      <point x="24" y="283" type="curve" smooth="yes"/>
      <point x="24" y="148"/>
      <point x="115" y="62"/>
      <point x="244" y="62" type="curve" smooth="yes"/>
      <point x="311" y="62"/>
      <point x="378" y="94"/>
      <point x="400" y="140" type="curve"/>
      <point x="392" y="140" type="line"/>
      <point x="392" y="34" type="line" smooth="yes"/>
      <point x="392" y="26"/>
      <point x="391" y="18"/>
      <point x="390" y="11" type="curve"/>
      <point x="407" y="46" type="line"/>
      <point x="269" y="46" type="line"/>
      <point x="269" y="-33" type="line"/>
      <point x="392" y="-33" type="line"/>
      <point x="375" y="-25" type="line"/>
      <point x="357" y="-49"/>
      <point x="325" y="-59"/>
      <point x="276" y="-59" type="curve" smooth="yes"/>
      <point x="224" y="-59"/>
      <point x="139" y="-35"/>
      <point x="92" y="0" type="curve"/>
      <point x="39" y="-134" type="line"/>
      <point x="102" y="-175"/>
      <point x="195" y="-192"/>
    </contour>
    <contour>
      <point x="311" y="210" type="curve" smooth="yes"/>
      <point x="266" y="210"/>
      <point x="233" y="234"/>
      <point x="233" y="281" type="curve" smooth="yes"/>
      <point x="233" y="328"/>
      <point x="264" y="354"/>
      <point x="311" y="354" type="curve" smooth="yes"/>
      <point x="358" y="354"/>
      <point x="389" y="328"/>
      <point x="389" y="281" type="curve" smooth="yes"/>
      <point x="389" y="236"/>
      <point x="357" y="210"/>
    </contour>
  </outline>
</glyph>
<glyph name="schwa" format="2">
  <advance width="563"/>
  <unicode hex="0259"/>
  <outline>
    <contour>
      <point x="276" y="-12" type="curve" smooth="yes"/>
      <point x="426" y="-12"/>
      <point x="539" y="94"/>
      <point x="539" y="246" type="curve" smooth="yes"/>
      <point x="539" y="404"/>
      <point x="424" y="506"/>
      <point x="245" y="506" type="curve" smooth="yes"/>
      <point x="172" y="506"/>
      <point x="92" y="487"/>
      <point x="28" y="449" type="curve"/>
      <point x="78" y="313" type="line"/>
      <point x="129" y="339"/>
      <point x="188" y="355"/>
      <point x="237" y="355" type="curve" smooth="yes"/>
      <point x="310" y="355"/>
      <point x="346" y="326"/>
      <point x="346" y="239" type="curve" smooth="yes"/>
      <point x="346" y="231" type="line" smooth="yes"/>
      <point x="346" y="155"/>
      <point x="314" y="121"/>
      <point x="262" y="121" type="curve" smooth="yes"/>
      <point x="223" y="121"/>
      <point x="196" y="147"/>
      <point x="196" y="208" type="curve"/>
      <point x="175" y="197" type="line"/>
      <point x="363" y="197" type="line"/>
      <point x="363" y="288" type="line"/>
      <point x="20" y="288" type="line"/>
      <point x="20" y="248" type="line" smooth="yes"/>
      <point x="20" y="80"/>
      <point x="117" y="-12"/>
    </contour>
  </outline>
</glyph>
<glyph name="ringhalfright" format="2">
  <advance width="500"/>
  <unicode hex="02BE"/>
  <anchor x="250" y="484" name="_top"/>
  <anchor x="250" y="685" name="top"/>
  <outline>
    <contour>
      <point x="250" y="547" type="line"/>
      <point x="315" y="547"/>
      <point x="366" y="597"/>
      <point x="366" y="662" type="curve" smooth="yes"/>
      <point x="366" y="726"/>
      <point x="315" y="776"/>
      <point x="250" y="776" type="curve"/>
      <point x="250" y="703" type="line"/>
      <point x="273" y="703"/>
      <point x="289" y="685"/>
      <point x="289" y="662" type="curve" smooth="yes"/>
      <point x="289" y="639"/>
      <point x="273" y="620"/>
      <point x="250" y="620" type="curve"/>
    </contour>
  </outline>
</glyph>
<glyph name="gravecomb" format="2">
  <unicode hex="0300"/>
  <anchor x="0" y="484" name="_top"/>
  <anchor x="0" y="685" name="top"/>
  <outline>
    <contour>
      <point x="-66" y="558" type="line"/>
      <point x="66" y="558" type="line"/>
      <point x="-35" y="765" type="line"/>
      <point x="-227" y="765" type="line"/>
    </contour>
  </outline>
</glyph>
<glyph name="acutecomb" format="2">
  <unicode hex="0301"/>
  <guideline x="-134" y="558" angle="0" name=" [locked]"/>
  <anchor x="0" y="484" name="_top"/>
  <anchor x="0" y="685" name="top"/>
  <outline>
    <contour>
      <point x="-66" y="558" type="line"/>
      <point x="66" y="558" type="line"/>
      <point x="227" y="765" type="line"/>
      <point x="35" y="765" type="line"/>
    </contour>
  </outline>
</glyph>
<glyph name="hookabovecomb" format="2">
  <unicode hex="0309"/>
  <anchor x="0" y="484" name="_top"/>
  <anchor x="0" y="685" name="top"/>
  <outline>
    <contour>
      <point x="-58" y="558" type="line"/>
      <point x="58" y="558" type="line"/>
      <point x="58" y="575" type="line" smooth="yes"/>
      <point x="58" y="623"/>
      <point x="134" y="626"/>
      <point x="134" y="697" type="curve" smooth="yes"/>
      <point x="134" y="747"/>
      <point x="88" y="775"/>
      <point x="9" y="775" type="curve" smooth="yes"/>
      <point x="-46" y="775"/>
      <point x="-92" y="766"/>
      <point x="-127" y="748" type="curve"/>
      <point x="-98" y="672" type="line"/>
      <point x="-80" y="681"/>
      <point x="-64" y="686"/>
      <point x="-42" y="686" type="curve" smooth="yes"/>
      <point x="-26" y="686"/>
      <point x="-14" y="681"/>
      <point x="-14" y="666" type="curve" smooth="yes"/>
      <point x="-14" y="639"/>
      <point x="-58" y="626"/>
      <point x="-58" y="581" type="curve" smooth="yes"/>
    </contour>
  </outline>
</glyph>
<glyph name="hungarumlautcomb" format="2">
  <unicode hex="030B"/>
  <anchor x="0" y="484" name="_top"/>
  <anchor x="0" y="685" name="top"/>
  <outline>
    <contour>
      <point x="38" y="558" type="line"/>
      <point x="143" y="558" type="line"/>
      <point x="241" y="765" type="line"/>
      <point x="79" y="765" type="line"/>
    </contour>
    <contour>
      <point x="-150" y="558" type="line"/>
      <point x="-45" y="558" type="line"/>
      <point x="53" y="765" type="line"/>
      <point x="-109" y="765" type="line"/>
    </contour>
  </outline>
</glyph>
<glyph name="horncomb" format="2">
  <unicode hex="031B"/>
  <anchor x="0" y="484" name="_topright"/>
  <outline>
    <contour>
      <point x="127" y="404" type="line"/>
      <point x="200" y="416"/>
      <point x="253" y="484"/>
      <point x="253" y="562" type="curve" smooth="yes"/>
      <point x="253" y="616" type="line"/>
      <point x="76" y="616" type="line"/>
      <point x="76" y="586" type="line" smooth="yes"/>
      <point x="76" y="502"/>
      <point x="44" y="494"/>
      <point x="0" y="494" type="curve"/>
      <point x="0" y="481" type="line"/>
    </contour>
  </outline>
</glyph>
<glyph name="ogonekcomb" format="2">
  <unicode hex="0328"/>
  <anchor x="0" y="0" name="_ogonek"/>
  <outline>
    <contour>
      <point x="-26" y="-200" type="curve" smooth="yes"/>
      <point x="12" y="-200"/>
      <point x="37" y="-196"/>
      <point x="76" y="-182" type="curve"/>
      <point x="59" y="-92" type="line"/>
      <point x="39" y="-98"/>
      <point x="25" y="-101"/>
      <point x="3" y="-101" type="curve" smooth="yes"/>
      <point x="-27" y="-101"/>
      <point x="-49" y="-85"/>
      <point x="-49" y="-60" type="curve" smooth="yes"/>
      <point x="-49" y="-39"/>
      <point x="-37" y="-14"/>
      <point x="0" y="0" type="curve"/>
      <point x="-54" y="52" type="line"/>
      <point x="-121" y="30"/>
      <point x="-168" y="-22"/>
      <point x="-168" y="-84" type="curve" smooth="yes"/>
      <point x="-168" y="-155"/>
      <point x="-118" y="-200"/>
    </contour>
  </outline>
</glyph>
<glyph name="Dzhe-cy" format="2">
  <advance width="786"/>
  <unicode hex="040F"/>
  <outline>
    <contour>
      <point x="301" y="-180" type="line"/>
      <point x="486" y="-180" type="line"/>
      <point x="486" y="0" type="line"/>
      <point x="729" y="0" type="line"/>
      <point x="729" y="705" type="line"/>
      <point x="514" y="705" type="line"/>
      <point x="514" y="174" type="line"/>
      <point x="272" y="174" type="line"/>
      <point x="272" y="705" type="line"/>
      <point x="57" y="705" type="line"/>
      <point x="57" y="0" type="line"/>
      <point x="301" y="0" type="line"/>
    </contour>
  </outline>
</glyph>
<glyph name="Sha-cy" format="2">
  <advance width="1101"/>
  <unicode hex="0428"/>
  <outline>
    <contour>
      <point x="57" y="0" type="line"/>
      <point x="1044" y="0" type="line"/>
      <point x="1044" y="705" type="line"/>
      <point x="833" y="705" type="line"/>
      <point x="833" y="174" type="line"/>
      <point x="656" y="174" type="line"/>
      <point x="656" y="705" type="line"/>
      <point x="445" y="705" type="line"/>
      <point x="445" y="174" type="line"/>
      <point x="268" y="174" type="line"/>
      <point x="268" y="705" type="line"/>
      <point x="57" y="705" type="line"/>
    </contour>
  </outline>
</glyph>
<glyph name="Ia-cy" format="2">
  <advance width="722"/>
  <unicode hex="042F"/>
  <outline>
    <contour>
      <point x="14" y="0" type="line"/>
      <point x="250" y="0" type="line"/>
      <point x="373" y="224" type="line" smooth="yes"/>
      <point x="384" y="243"/>
      <point x="406" y="252"/>
      <point x="427" y="252" type="curve" smooth="yes"/>
      <point x="450" y="252" type="line"/>
      <point x="450" y="0" type="line"/>
      <point x="665" y="0" type="line"/>
      <point x="665" y="705" type="line"/>
      <point x="307" y="705" type="line" smooth="yes"/>
      <point x="145" y="705"/>
      <point x="52" y="619"/>
      <point x="52" y="479" type="curve" smooth="yes"/>
      <point x="52" y="340"/>
      <point x="144" y="254"/>
      <point x="307" y="254" type="curve"/>
      <point x="300" y="273" type="line"/>
      <point x="253" y="273" type="line" smooth="yes"/>
      <point x="195" y="273"/>
      <point x="149" y="245"/>
      <point x="119" y="191" type="curve" smooth="yes"/>
    </contour>
    <contour>
      <point x="347" y="402" type="line" smooth="yes"/>
      <point x="289" y="402"/>
      <point x="256" y="424"/>
      <point x="256" y="472" type="curve" smooth="yes"/>
      <point x="256" y="519"/>
      <point x="289" y="541"/>
      <point x="347" y="541" type="curve" smooth="yes"/>
      <point x="450" y="541" type="line"/>
      <point x="450" y="402" type="line"/>
    </contour>
  </outline>
</glyph>
<glyph name="ge-cy" format="2">
  <advance width="500"/>
  <unicode hex="0433"/>
  <anchor x="68" y="0" name="bottomright"/>
  <anchor x="194" y="248" name="center"/>
  <anchor x="247" y="484" name="top"/>
  <outline>
    <contour>
      <point x="54" y="0" type="line"/>
      <point x="262" y="0" type="line"/>
      <point x="262" y="334" type="line"/>
      <point x="479" y="334" type="line"/>
      <point x="479" y="494" type="line"/>
      <point x="54" y="494" type="line"/>
    </contour>
  </outline>
</glyph>
<glyph name="em-cy" format="2">
  <advance width="734"/>
  <unicode hex="043C"/>
  <anchor x="498" y="0" name="bottomright"/>
  <outline>
    <contour>
      <point x="54" y="0" type="line"/>
      <point x="236" y="0" type="line"/>
      <point x="236" y="253" type="line"/>
      <point x="209" y="253" type="line"/>
      <point x="321" y="82" type="line"/>
      <point x="413" y="82" type="line"/>
      <point x="525" y="253" type="line"/>
      <point x="498" y="253" type="line"/>
      <point x="498" y="0" type="line"/>
      <point x="680" y="0" type="line"/>
      <point x="680" y="494" type="line"/>
      <point x="510" y="494" type="line"/>
      <point x="368" y="273" type="line"/>
      <point x="224" y="494" type="line"/>
      <point x="54" y="494" type="line"/>
    </contour>
  </outline>
</glyph>
<glyph name="tse-cy" format="2">
  <advance width="671"/>
  <unicode hex="0446"/>
  <outline>
    <contour>
      <point x="487" y="-130" type="line"/>
      <point x="662" y="-130" type="line"/>
      <point x="662" y="158" type="line"/>
      <point x="577" y="158" type="line"/>
      <point x="577" y="494" type="line"/>
      <point x="369" y="494" type="line"/>
      <point x="369" y="158" type="line"/>
      <point x="262" y="158" type="line"/>
      <point x="262" y="494" type="line"/>
      <point x="54" y="494" type="line"/>
      <point x="54" y="0" type="line"/>
      <point x="487" y="0" type="line"/>
    </contour>
  </outline>
</glyph>
<glyph name="yeru-cy" format="2">
  <advance width="862"/>
  <unicode hex="044B"/>
  <anchor x="431" y="484" name="top"/>
  <outline>
    <contour>
      <point x="54" y="0" type="line"/>
      <point x="356" y="0" type="line" smooth="yes"/>
      <point x="479" y="0"/>
      <point x="566" y="76"/>
      <point x="566" y="182" type="curve" smooth="yes"/>
      <point x="566" y="297"/>
      <point x="496" y="354"/>
      <point x="356" y="354" type="curve" smooth="yes"/>
      <point x="262" y="354" type="line"/>
      <point x="262" y="494" type="line"/>
      <point x="54" y="494" type="line"/>
    </contour>
    <contour>
      <point x="262" y="129" type="line"/>
      <point x="262" y="225" type="line"/>
      <point x="316" y="225" type="line" smooth="yes"/>
      <point x="357" y="225"/>
      <point x="378" y="212"/>
      <point x="378" y="179" type="curve" smooth="yes"/>
      <point x="378" y="146"/>
      <point x="354" y="129"/>
      <point x="316" y="129" type="curve" smooth="yes"/>
    </contour>
    <contour>
      <point x="600" y="0" type="line"/>
      <point x="808" y="0" type="line"/>
      <point x="808" y="494" type="line"/>
      <point x="600" y="494" type="line"/>
    </contour>
  </outline>
</glyph>
<glyph name="ereversed-cy" format="2">
  <advance width="547"/>
  <unicode hex="044D"/>
  <anchor x="241" y="484" name="top"/>
  <outline>
    <contour>
      <point x="215" y="-12" type="curve" smooth="yes"/>
      <point x="395" y="-12"/>
      <point x="513" y="86"/>
      <point x="513" y="247" type="curve" smooth="yes"/>
      <point x="513" y="408"/>
      <point x="395" y="506"/>
      <point x="215" y="506" type="curve" smooth="yes"/>
      <point x="140" y="506"/>
      <point x="60" y="487"/>
      <point x="9" y="453" type="curve"/>
      <point x="61" y="329" type="line"/>
      <point x="101" y="352"/>
      <point x="150" y="367"/>
      <point x="196" y="367" type="curve" smooth="yes"/>
      <point x="261" y="367"/>
      <point x="306" y="347"/>
      <point x="324" y="286" type="curve"/>
      <point x="337" y="315" type="line"/>
      <point x="119" y="315" type="line"/>
      <point x="119" y="183" type="line"/>
      <point x="337" y="183" type="line"/>
      <point x="324" y="215" type="line"/>
      <point x="311" y="152"/>
      <point x="261" y="128"/>
      <point x="196" y="128" type="curve" smooth="yes"/>
      <point x="152" y="128"/>
      <point x="100" y="144"/>
      <point x="61" y="166" type="curve"/>
      <point x="9" y="42" type="line"/>
      <point x="58" y="6"/>
      <point x="135" y="-12"/>
    </contour>
  </outline>
</glyph>
<glyph name="e-cy" format="2">
  <advance width="547"/>
  <unicode hex="0454"/>
  <outline>
    <contour>
      <point x="332" y="-12" type="curve" smooth="yes"/>
      <point x="412" y="-12"/>
      <point x="489" y="6"/>
      <point x="538" y="42" type="curve"/>
      <point x="486" y="166" type="line"/>
      <point x="447" y="144"/>
      <point x="395" y="128"/>
      <point x="351" y="128" type="curve" smooth="yes"/>
      <point x="286" y="128"/>
      <point x="236" y="152"/>
      <point x="223" y="215" type="curve"/>
      <point x="210" y="183" type="line"/>
      <point x="428" y="183" type="line"/>
      <point x="428" y="315" type="line"/>
      <point x="210" y="315" type="line"/>
      <point x="223" y="286" type="line"/>
      <point x="241" y="347"/>
      <point x="286" y="367"/>
      <point x="351" y="367" type="curve" smooth="yes"/>
      <point x="397" y="367"/>
      <point x="446" y="352"/>
      <point x="486" y="329" type="curve"/>
      <point x="538" y="453" type="line"/>
      <point x="493" y="487"/>
      <point x="417" y="506"/>
      <point x="342" y="506" type="curve" smooth="yes"/>
      <point x="152" y="506"/>
      <point x="34" y="408"/>
      <point x="34" y="247" type="curve" smooth="yes"/>
      <point x="34" y="86"/>
      <point x="152" y="-12"/>
    </contour>
  </outline>
</glyph>
<glyph name="lje-cy" format="2">
  <advance width="902"/>
  <unicode hex="0459"/>
  <outline>
    <contour>
      <point x="67" y="-18" type="line"/>
      <point x="227" y="-8"/>
      <point x="303" y="108"/>
      <point x="303" y="285" type="curve" smooth="yes"/>
      <point x="303" y="336" type="line"/>
      <point x="377" y="336" type="line"/>
      <point x="377" y="0" type="line"/>
      <point x="674" y="0" type="line" smooth="yes"/>
      <point x="797" y="0"/>
      <point x="884" y="76"/>
      <point x="884" y="182" type="curve" smooth="yes"/>
      <point x="884" y="297"/>
      <point x="814" y="354"/>
      <point x="674" y="354" type="curve" smooth="yes"/>
      <point x="580" y="354" type="line"/>
      <point x="580" y="494" type="line"/>
      <point x="115" y="494" type="line"/>
      <point x="115" y="292" type="line" smooth="yes"/>
      <point x="115" y="203"/>
      <point x="83" y="154"/>
      <point x="11" y="146" type="curve"/>
    </contour>
    <contour>
      <point x="580" y="129" type="line"/>
      <point x="580" y="225" type="line"/>
      <point x="634" y="225" type="line" smooth="yes"/>
      <point x="675" y="225"/>
      <point x="696" y="212"/>
      <point x="696" y="179" type="curve" smooth="yes"/>
      <point x="696" y="146"/>
      <point x="672" y="129"/>
      <point x="634" y="129" type="curve" smooth="yes"/>
    </contour>
  </outline>
</glyph>
<glyph name="izhitsa-cy" format="2">
  <advance width="617"/>
  <unicode hex="0475"/>
  <outline>
    <contour>
      <point x="200" y="0" type="line"/>
      <point x="368" y="0" type="line"/>
      <point x="490" y="270" type="line" smooth="yes"/>
      <point x="513" y="322"/>
      <point x="550" y="343"/>
      <point x="612" y="341" type="curve"/>
      <point x="595" y="506" type="line"/>
      <point x="441" y="506"/>
      <point x="379" y="471"/>
      <point x="331" y="351" type="curve" smooth="yes"/>
      <point x="272" y="204" type="line"/>
      <point x="308" y="204" type="line"/>
      <point x="199" y="494" type="line"/>
      <point x="-18" y="494" type="line"/>
    </contour>
  </outline>
</glyph>
<glyph name="gheupturn-cy" format="2">
  <advance width="500"/>
  <unicode hex="0491"/>
  <outline>
    <contour>
      <point x="54" y="0" type="line"/>
      <point x="262" y="0" type="line"/>
      <point x="262" y="334" type="line"/>
      <point x="479" y="334" type="line"/>
      <point x="479" y="602" type="line"/>
      <point x="304" y="602" type="line"/>
      <point x="304" y="494" type="line"/>
      <point x="54" y="494" type="line"/>
    </contour>
  </outline>
</glyph>
<glyph name="Zedescender-cy" format="2">
  <advance width="624"/>
  <unicode hex="0498"/>
  <outline>
    <contour>
      <point x="219" y="-180" type="line"/>
      <point x="394" y="-180" type="line"/>
      <point x="394" y="-3" type="line"/>
      <point x="526" y="24"/>
      <point x="590" y="102"/>
      <point x="590" y="202" type="curve" smooth="yes"/>
      <point x="590" y="309"/>
      <point x="520" y="373"/>
      <point x="394" y="383" type="curve"/>
      <point x="402" y="351" type="line"/>
      <point x="504" y="360"/>
      <point x="571" y="427"/>
      <point x="571" y="523" type="curve" smooth="yes"/>
      <point x="571" y="633"/>
      <point x="483" y="717"/>
      <point x="299" y="717" type="curve" smooth="yes"/>
      <point x="186" y="717"/>
      <point x="89" y="688"/>
      <point x="25" y="644" type="curve"/>
      <point x="83" y="488" type="line"/>
      <point x="131" y="521"/>
      <point x="203" y="542"/>
      <point x="271" y="542" type="curve" smooth="yes"/>
      <point x="338" y="542"/>
      <point x="362" y="518"/>
      <point x="362" y="488" type="curve" smooth="yes"/>
      <point x="362" y="453"/>
      <point x="340" y="440"/>
      <point x="284" y="440" type="curve" smooth="yes"/>
      <point x="134" y="440" type="line"/>
      <point x="134" y="276" type="line"/>
      <point x="303" y="276" type="line" smooth="yes"/>
      <point x="359" y="276"/>
      <point x="382" y="259"/>
      <point x="382" y="227" type="curve" smooth="yes"/>
      <point x="382" y="182"/>
      <point x="346" y="163"/>
      <point x="268" y="163" type="curve" smooth="yes"/>
      <point x="190" y="163"/>
      <point x="118" y="184"/>
      <point x="70" y="217" type="curve"/>
      <point x="12" y="61" type="line"/>
      <point x="73" y="24"/>
      <point x="138" y="0"/>
      <point x="219" y="-9" type="curve"/>
    </contour>
  </outline>
</glyph>
<glyph name="enghe-cy" format="2">
  <advance width="794"/>
  <unicode hex="04A5"/>
  <outline>
    <contour>
      <point x="54" y="0" type="line"/>
      <point x="262" y="0" type="line"/>
      <point x="262" y="171" type="line"/>
      <point x="385" y="171" type="line"/>
      <point x="385" y="0" type="line"/>
      <point x="593" y="0" type="line"/>
      <point x="593" y="332" type="line"/>
      <point x="773" y="332" type="line"/>
      <point x="773" y="494" type="line"/>
      <point x="385" y="494" type="line"/>
      <point x="385" y="329" type="line"/>
      <point x="262" y="329" type="line"/>
      <point x="262" y="494" type="line"/>
      <point x="54" y="494" type="line"/>
    </contour>
  </outline>
</glyph>
<glyph name="ustraightstroke-cy" format="2">
  <advance width="570"/>
  <unicode hex="04B1"/>
  <outline>
    <contour>
      <point x="182" y="-180" type="line"/>
      <point x="390" y="-180" type="line"/>
      <point x="390" y="-67" type="line"/>
      <point x="524" y="-67" type="line"/>
      <point x="524" y="73" type="line"/>
      <point x="390" y="73" type="line"/>
      <point x="390" y="49" type="line"/>
      <point x="591" y="494" type="line"/>
      <point x="388" y="494" type="line"/>
      <point x="272" y="204" type="line"/>
      <point x="308" y="204" type="line"/>
      <point x="199" y="494" type="line"/>
      <point x="-18" y="494" type="line"/>
      <point x="182" y="40" type="line"/>
      <point x="182" y="73" type="line"/>
      <point x="47" y="73" type="line"/>
      <point x="47" y="-67" type="line"/>
      <point x="182" y="-67" type="line"/>
    </contour>
  </outline>
</glyph>
<glyph name="tetse-cy" format="2">
  <advance width="805"/>
  <unicode hex="04B5"/>
  <outline>
    <contour>
      <point x="621" y="-130" type="line"/>
      <point x="796" y="-130" type="line"/>
      <point x="796" y="158" type="line"/>
      <point x="711" y="158" type="line"/>
      <point x="711" y="494" type="line"/>
      <point x="503" y="494" type="line"/>
      <point x="503" y="158" type="line"/>
      <point x="348" y="158" type="line"/>
      <point x="348" y="332" type="line"/>
      <point x="443" y="332" type="line"/>
      <point x="443" y="494" type="line"/>
      <point x="10" y="494" type="line"/>
      <point x="10" y="332" type="line"/>
      <point x="140" y="332" type="line"/>
      <point x="140" y="0" type="line"/>
      <point x="621" y="0" type="line"/>
    </contour>
  </outline>
</glyph>
<glyph name="Chedescender-cy" format="2">
  <advance width="791"/>
  <unicode hex="04B6"/>
  <outline>
    <contour>
      <point x="593" y="-180" type="line"/>
      <point x="778" y="-180" type="line"/>
      <point x="778" y="167" type="line"/>
      <point x="678" y="167" type="line"/>
      <point x="678" y="705" type="line"/>
      <point x="463" y="705" type="line"/>
      <point x="463" y="409" type="line"/>
      <point x="437" y="400"/>
      <point x="402" y="395"/>
      <point x="375" y="395" type="curve" smooth="yes"/>
      <point x="297" y="395"/>
      <point x="258" y="432"/>
      <point x="258" y="531" type="curve" smooth="yes"/>
      <point x="258" y="705" type="line"/>
      <point x="43" y="705" type="line"/>
      <point x="43" y="525" type="line" smooth="yes"/>
      <point x="43" y="315"/>
      <point x="154" y="216"/>
      <point x="347" y="216" type="curve" smooth="yes"/>
      <point x="390" y="216"/>
      <point x="437" y="224"/>
      <point x="463" y="232" type="curve"/>
      <point x="463" y="0" type="line"/>
      <point x="593" y="0" type="line"/>
    </contour>
  </outline>
</glyph>
<glyph name="cheverticalstroke-cy" format="2">
  <advance width="682"/>
  <unicode hex="04B9"/>
  <outline>
    <contour>
      <point x="420" y="0" type="line"/>
      <point x="628" y="0" type="line"/>
      <point x="628" y="494" type="line"/>
      <point x="420" y="494" type="line"/>
      <point x="420" y="293" type="line"/>
      <point x="403" y="289"/>
      <point x="379" y="287"/>
      <point x="366" y="287" type="curve"/>
      <point x="394" y="270" type="line"/>
      <point x="394" y="400" type="line"/>
      <point x="280" y="400" type="line"/>
      <point x="280" y="270" type="line"/>
      <point x="320" y="289" type="line"/>
      <point x="272" y="296"/>
      <point x="242" y="312"/>
      <point x="242" y="375" type="curve" smooth="yes"/>
      <point x="242" y="494" type="line"/>
      <point x="34" y="494" type="line"/>
      <point x="34" y="360" type="line" smooth="yes"/>
      <point x="34" y="212"/>
      <point x="128" y="133"/>
      <point x="313" y="133" type="curve"/>
      <point x="280" y="164" type="line"/>
      <point x="280" y="51" type="line"/>
      <point x="394" y="51" type="line"/>
      <point x="394" y="164" type="line"/>
      <point x="359" y="135" type="line"/>
      <point x="373" y="136"/>
      <point x="397" y="140"/>
      <point x="420" y="144" type="curve"/>
    </contour>
  </outline>
</glyph>
<glyph name="Cheabkhasian-cy" format="2">
  <advance width="1037"/>
  <unicode hex="04BC"/>
  <anchor x="754" y="0" name="ogonek"/>
  <outline>
    <contour>
      <point x="682" y="-12" type="curve" smooth="yes"/>
      <point x="788" y="-12"/>
      <point x="899" y="17"/>
      <point x="964" y="59" type="curve"/>
      <point x="896" y="221" type="line"/>
      <point x="841" y="186"/>
      <point x="763" y="167"/>
      <point x="691" y="167" type="curve" smooth="yes"/>
      <point x="567" y="167"/>
      <point x="501" y="213"/>
      <point x="485" y="304" type="curve"/>
      <point x="456" y="273" type="line"/>
      <point x="996" y="273" type="line"/>
      <point x="996" y="335" type="line" smooth="yes"/>
      <point x="996" y="559"/>
      <point x="863" y="717"/>
      <point x="638" y="717" type="curve" smooth="yes"/>
      <point x="428" y="717"/>
      <point x="283" y="587"/>
      <point x="261" y="405" type="curve"/>
      <point x="289" y="434" type="line"/>
      <point x="255" y="434" type="line" smooth="yes"/>
      <point x="225" y="434"/>
      <point x="214" y="450"/>
      <point x="214" y="495" type="curve" smooth="yes"/>
      <point x="214" y="544" type="line"/>
      <point x="3" y="544" type="line"/>
      <point x="3" y="495" type="line" smooth="yes"/>
      <point x="3" y="356"/>
      <point x="76" y="273"/>
      <point x="228" y="273" type="curve" smooth="yes"/>
      <point x="297" y="273" type="line"/>
      <point x="262" y="296" type="line"/>
      <point x="287" y="104"/>
      <point x="441" y="-12"/>
    </contour>
    <contour>
      <point x="639" y="547" type="curve" smooth="yes"/>
      <point x="736" y="547"/>
      <point x="788" y="487"/>
      <point x="788" y="352" type="curve"/>
      <point x="834" y="434" type="line"/>
      <point x="449" y="434" type="line"/>
      <point x="485" y="406" type="line"/>
      <point x="499" y="503"/>
      <point x="556" y="547"/>
    </contour>
  </outline>
</glyph>
<glyph name="Dzeabkhasian-cy" format="2">
  <advance width="624"/>
  <unicode hex="04E0"/>
  <outline>
    <contour>
      <point x="289" y="-12" type="curve" smooth="yes"/>
      <point x="493" y="-12"/>
      <point x="590" y="79"/>
      <point x="590" y="227" type="curve" smooth="yes"/>
      <point x="590" y="345"/>
      <point x="507" y="435"/>
      <point x="355" y="435" type="curve" smooth="yes"/>
      <point x="299" y="435" type="line"/>
      <point x="352" y="386" type="line"/>
      <point x="555" y="558" type="line"/>
      <point x="555" y="705" type="line"/>
      <point x="28" y="705" type="line"/>
      <point x="28" y="531" type="line"/>
      <point x="351" y="531" type="line"/>
      <point x="351" y="573" type="line"/>
      <point x="148" y="401" type="line"/>
      <point x="148" y="276" type="line"/>
      <point x="283" y="276" type="line" smooth="yes"/>
      <point x="359" y="276"/>
      <point x="382" y="259"/>
      <point x="382" y="222" type="curve" smooth="yes"/>
      <point x="382" y="182"/>
      <point x="346" y="163"/>
      <point x="268" y="163" type="curve" smooth="yes"/>
      <point x="190" y="163"/>
      <point x="118" y="184"/>
      <point x="70" y="217" type="curve"/>
      <point x="12" y="61" type="line"/>
      <point x="89" y="14"/>
      <point x="173" y="-12"/>
    </contour>
  </outline>
</glyph>
<glyph name="Pedescender-cy" format="2">
  <advance width="842"/>
  <unicode hex="0524"/>
  <outline>
    <contour>
      <point x="644" y="-180" type="line"/>
      <point x="829" y="-180" type="line"/>
      <point x="829" y="167" type="line"/>
      <point x="729" y="167" type="line"/>
      <point x="729" y="705" type="line"/>
      <point x="57" y="705" type="line"/>
      <point x="57" y="0" type="line"/>
      <point x="272" y="0" type="line"/>
      <point x="272" y="531" type="line"/>
      <point x="514" y="531" type="line"/>
      <point x="514" y="0" type="line"/>
      <point x="644" y="0" type="line"/>
    </contour>
  </outline>
</glyph>
<glyph name="EnLeftHook-cy" format="2">
  <advance width="814"/>
  <unicode hex="0528"/>
  <outline>
    <contour>
      <point x="-8" y="-193" type="line"/>
      <point x="36" y="-190" type="line" smooth="yes"/>
      <point x="229" y="-177"/>
      <point x="292" y="-122"/>
      <point x="292" y="29" type="curve" smooth="yes"/>
      <point x="292" y="269" type="line"/>
      <point x="542" y="269" type="line"/>
      <point x="542" y="0" type="line"/>
      <point x="757" y="0" type="line"/>
      <point x="757" y="705" type="line"/>
      <point x="542" y="705" type="line"/>
      <point x="542" y="445" type="line"/>
      <point x="292" y="445" type="line"/>
      <point x="292" y="705" type="line"/>
      <point x="77" y="705" type="line"/>
      <point x="77" y="8" type="line" smooth="yes"/>
      <point x="77" y="-24"/>
      <point x="64" y="-38"/>
      <point x="28" y="-42" type="curve" smooth="yes"/>
      <point x="-22" y="-48" type="line"/>
    </contour>
  </outline>
</glyph>
<glyph name="enlefthook-cy" format="2">
  <advance width="647"/>
  <unicode hex="0529"/>
  <anchor x="385" y="0" name="bottomright"/>
  <outline>
    <contour>
      <point x="-31" y="-193" type="line"/>
      <point x="13" y="-190" type="line" smooth="yes"/>
      <point x="203" y="-177"/>
      <point x="262" y="-120"/>
      <point x="262" y="39" type="curve" smooth="yes"/>
      <point x="262" y="171" type="line"/>
      <point x="385" y="171" type="line"/>
      <point x="385" y="0" type="line"/>
      <point x="593" y="0" type="line"/>
      <point x="593" y="494" type="line"/>
      <point x="385" y="494" type="line"/>
      <point x="385" y="329" type="line"/>
      <point x="262" y="329" type="line"/>
      <point x="262" y="494" type="line"/>
      <point x="54" y="494" type="line"/>
      <point x="54" y="8" type="line" smooth="yes"/>
      <point x="54" y="-24"/>
      <point x="41" y="-38"/>
      <point x="5" y="-42" type="curve" smooth="yes"/>
      <point x="-45" y="-48" type="line"/>
    </contour>
  </outline>
</glyph>
<glyph name="quoteleft" format="2">
  <advance width="285"/>
  <unicode hex="2018"/>
  <outline>
    <contour>
      <point x="37" y="340" type="line"/>
      <point x="248" y="340" type="line"/>
      <point x="248" y="547" type="line"/>
      <point x="102" y="547" type="line"/>
      <point x="146" y="495" type="line"/>
      <point x="146" y="554"/>
      <point x="171" y="599"/>
      <point x="227" y="654" type="curve"/>
      <point x="151" y="715" type="line"/>
      <point x="67" y="631"/>
      <point x="37" y="561"/>
      <point x="37" y="468" type="curve" smooth="yes"/>
    </contour>
  </outline>
</glyph>
<glyph name="guilsinglleft" format="2">
  <advance width="338"/>
  <unicode hex="2039"/>
  <outline>
    <contour>
      <point x="173" y="53" type="line"/>
      <point x="304" y="115" type="line"/>
      <point x="238" y="267" type="line"/>
      <point x="304" y="417" type="line"/>
      <point x="170" y="480" type="line"/>
      <point x="63" y="317" type="line"/>
      <point x="63" y="216" type="line"/>
    </contour>
  </outline>
</glyph>
<glyph name="guilsinglright" format="2">
  <advance width="338"/>
  <unicode hex="203A"/>
  <outline>
    <contour>
      <point x="165" y="53" type="line"/>
      <point x="275" y="216" type="line"/>
      <point x="275" y="317" type="line"/>
      <point x="168" y="480" type="line"/>
      <point x="34" y="417" type="line"/>
      <point x="100" y="267" type="line"/>
      <point x="34" y="115" type="line"/>
    </contour>
  </outline>
</glyph>
<glyph name="euro" format="2">
  <advance width="600"/>
  <unicode hex="20AC"/>
  <outline>
    <contour>
      <point x="392" y="-12" type="curve" smooth="yes"/>
      <point x="465" y="-12"/>
      <point x="543" y="15"/>
      <point x="584" y="60" type="curve"/>
      <point x="522" y="202" type="line"/>
      <point x="480" y="173"/>
      <point x="443" y="165"/>
      <point x="407" y="165" type="curve" smooth="yes"/>
      <point x="365" y="165"/>
      <point x="330" y="182"/>
      <point x="309" y="244" type="curve"/>
      <point x="289" y="216" type="line"/>
      <point x="434" y="216" type="line"/>
      <point x="434" y="328" type="line"/>
      <point x="265" y="328" type="line"/>
      <point x="296" y="318" type="line"/>
      <point x="296" y="341"/>
      <point x="296" y="373"/>
      <point x="296" y="400" type="curve"/>
      <point x="263" y="378" type="line"/>
      <point x="434" y="378" type="line"/>
      <point x="434" y="490" type="line"/>
      <point x="289" y="490" type="line"/>
      <point x="309" y="461" type="line"/>
      <point x="330" y="523"/>
      <point x="365" y="540"/>
      <point x="407" y="540" type="curve" smooth="yes"/>
      <point x="443" y="540"/>
      <point x="480" y="532"/>
      <point x="522" y="503" type="curve"/>
      <point x="584" y="645" type="line"/>
      <point x="543" y="690"/>
      <point x="465" y="717"/>
      <point x="392" y="717" type="curve" smooth="yes"/>
      <point x="242" y="717"/>
      <point x="125" y="625"/>
      <point x="94" y="456" type="curve"/>
      <point x="130" y="490" type="line"/>
      <point x="24" y="490" type="line"/>
      <point x="24" y="378" type="line"/>
      <point x="116" y="378" type="line"/>
      <point x="87" y="405" type="line"/>
      <point x="83" y="368"/>
      <point x="83" y="348"/>
      <point x="85" y="303" type="curve"/>
      <point x="114" y="328" type="line"/>
      <point x="24" y="328" type="line"/>
      <point x="24" y="216" type="line"/>
      <point x="121" y="216" type="line"/>
      <point x="94" y="249" type="line"/>
      <point x="125" y="80"/>
      <point x="242" y="-12"/>
    </contour>
  </outline>
</glyph>
<glyph name="tugrik" format="2">
  <advance width="600"/>
  <unicode hex="20AE"/>
  <outline>
    <contour>
      <point x="192" y="0" type="line"/>
      <point x="408" y="0" type="line"/>
      <point x="408" y="182" type="line"/>
      <point x="503" y="219" type="line"/>
      <point x="503" y="335" type="line"/>
      <point x="408" y="298" type="line"/>
      <point x="408" y="350" type="line"/>
      <point x="503" y="387" type="line"/>
      <point x="503" y="503" type="line"/>
      <point x="408" y="466" type="line"/>
      <point x="408" y="531" type="line"/>
      <point x="587" y="531" type="line"/>
      <point x="587" y="705" type="line"/>
      <point x="13" y="705" type="line"/>
      <point x="13" y="531" type="line"/>
      <point x="192" y="531" type="line"/>
      <point x="192" y="370" type="line"/>
      <point x="97" y="333" type="line"/>
      <point x="97" y="217" type="line"/>
      <point x="192" y="254" type="line"/>
      <point x="192" y="202" type="line"/>
      <point x="97" y="165" type="line"/>
      <point x="97" y="49" type="line"/>
      <point x="192" y="86" type="line"/>
    </contour>
  </outline>
</glyph>
<glyph name="peso" format="2">
  <advance width="600"/>
  <unicode hex="20B1"/>
  <outline>
    <contour>
      <point x="93" y="0" type="line"/>
      <point x="300" y="0" type="line"/>
      <point x="300" y="204" type="line"/>
      <point x="293" y="204" type="line" smooth="yes"/>
      <point x="383" y="204"/>
      <point x="457" y="253"/>
      <point x="494" y="335" type="curve"/>
      <point x="456" y="318" type="line"/>
      <point x="577" y="318" type="line"/>
      <point x="577" y="430" type="line"/>
      <point x="505" y="430" type="line"/>
      <point x="517" y="424" type="line"/>
      <point x="520" y="447"/>
      <point x="520" y="471"/>
      <point x="518" y="491" type="curve"/>
      <point x="506" y="480" type="line"/>
      <point x="577" y="480" type="line"/>
      <point x="577" y="592" type="line"/>
      <point x="456" y="592" type="line"/>
      <point x="496" y="574" type="line"/>
      <point x="457" y="656"/>
      <point x="381" y="705"/>
      <point x="293" y="705" type="curve" smooth="yes"/>
      <point x="93" y="705" type="line"/>
      <point x="93" y="592" type="line"/>
      <point x="24" y="592" type="line"/>
      <point x="24" y="480" type="line"/>
      <point x="93" y="480" type="line"/>
      <point x="93" y="430" type="line"/>
      <point x="24" y="430" type="line"/>
      <point x="24" y="318" type="line"/>
      <point x="93" y="318" type="line"/>
    </contour>
    <contour>
      <point x="290" y="339" type="line"/>
      <point x="290" y="568" type="line"/>
      <point x="302" y="568" type="line" smooth="yes"/>
      <point x="328" y="568"/>
      <point x="349" y="550"/>
      <point x="349" y="452" type="curve" smooth="yes"/>
      <point x="349" y="354"/>
      <point x="328" y="339"/>
      <point x="302" y="339" type="curve" smooth="yes"/>
    </contour>
  </outline>
</glyph>
<glyph name="integral" format="2">
  <advance width="600"/>
  <unicode hex="222B"/>
  <outline>
    <contour>
      <point x="66" y="-192" type="line"/>
      <point x="162" y="-192" type="line" smooth="yes"/>
      <point x="286" y="-192"/>
      <point x="404" y="-150"/>
      <point x="404" y="23" type="curve" smooth="yes"/>
      <point x="404" y="497" type="line" smooth="yes"/>
      <point x="404" y="535"/>
      <point x="427" y="556"/>
      <point x="473" y="556" type="curve" smooth="yes"/>
      <point x="536" y="556" type="line"/>
      <point x="536" y="717" type="line"/>
      <point x="440" y="717" type="line" smooth="yes"/>
      <point x="316" y="717"/>
      <point x="196" y="674"/>
      <point x="196" y="501" type="curve" smooth="yes"/>
      <point x="196" y="27" type="line" smooth="yes"/>
      <point x="196" y="-11"/>
      <point x="175" y="-32"/>
      <point x="129" y="-32" type="curve" smooth="yes"/>
      <point x="66" y="-32" type="line"/>
    </contour>
  </outline>
</glyph>
<glyph name="__descender-cy.case.cy" format="2">
  <advance width="32"/>
  <anchor x="0" y="0" name="_bottomright"/>
  <outline>
    <contour>
      <point x="84" y="-180" type="line"/>
      <point x="269" y="-180" type="line"/>
      <point x="269" y="167" type="line"/>
      <point x="20" y="167" type="line"/>
      <point x="20" y="0" type="line"/>
      <point x="84" y="0" type="line"/>
    </contour>
  </outline>
</glyph>
<glyph name="_part.Qtail" format="2">
  <advance width="806"/>
  <anchor x="404" y="-10" name="_Qtail"/>
  <outline>
    <contour>
      <point x="591" y="-234" type="line"/>
      <point x="775" y="-152" type="line"/>
      <point x="692" y="-19" type="line" smooth="yes"/>
      <point x="664" y="27"/>
      <point x="622" y="48"/>
      <point x="562" y="48" type="curve"/>
      <point x="404" y="-10" type="line"/>
      <point x="438" y="-10"/>
      <point x="457" y="-18"/>
      <point x="469" y="-36" type="curve" smooth="yes"/>
    </contour>
  </outline>
</glyph>
<glyph name="acutecomb_dotaccentcomb.case" format="2">
  <anchor x="0" y="705" name="_top"/>
  <outline>
    <contour>
      <point x="-168" y="920" type="line"/>
      <point x="0" y="920" type="line"/>
      <point x="0" y="1035" type="line"/>
      <point x="-168" y="1035" type="line"/>
    </contour>
    <contour>
      <point x="-70" y="765" type="line"/>
      <point x="70" y="765" type="line"/>
      <point x="253" y="942" type="line"/>
      <point x="48" y="942" type="line"/>
    </contour>
  </outline>
</glyph>
<glyph name="caroncomb.alt" format="2">
  <anchor x="0" y="705" name="_topright"/>
  <outline>
    <contour>
      <point x="0" y="508" type="line"/>
      <point x="88" y="508" type="line"/>
      <point x="119" y="705" type="line"/>
      <point x="0" y="705" type="line"/>
    </contour>
  </outline>
</glyph>
<glyph name="caroncomb_dotaccentcomb.case" format="2">
  <anchor x="0" y="705" name="_top"/>
  <outline>
    <contour>
      <point x="-85" y="765" type="line"/>
      <point x="85" y="765" type="line"/>
      <point x="197" y="922" type="line"/>
      <point x="73" y="922" type="line"/>
      <point x="0" y="864" type="line"/>
      <point x="-73" y="922" type="line"/>
      <point x="-197" y="922" type="line"/>
    </contour>
    <contour>
      <point x="-84" y="950" type="line"/>
      <point x="84" y="950" type="line"/>
      <point x="84" y="1065" type="line"/>
      <point x="-84" y="1065" type="line"/>
    </contour>
  </outline>
</glyph>
<glyph name="caroncomb_dotaccentcomb" format="2">
  <anchor x="0" y="484" name="_top"/>
  <outline>
    <contour>
      <point x="-85" y="558" type="line"/>
      <point x="85" y="558" type="line"/>
      <point x="197" y="715" type="line"/>
      <point x="73" y="715" type="line"/>
      <point x="0" y="657" type="line"/>
      <point x="-73" y="715" type="line"/>
      <point x="-197" y="715" type="line"/>
    </contour>
    <contour>
      <point x="-84" y="743" type="line"/>
      <point x="84" y="743" type="line"/>
      <point x="84" y="858" type="line"/>
      <point x="-84" y="858" type="line"/>
    </contour>
  </outline>
</glyph>
<glyph name="circumflexcomb_acutecomb.case" format="2">
  <anchor x="0" y="705" name="_top"/>
  <outline>
    <contour>
      <point x="-197" y="765" type="line"/>
      <point x="-73" y="765" type="line"/>
      <point x="0" y="833" type="line"/>
      <point x="73" y="765" type="line"/>
      <point x="197" y="765" type="line"/>
      <point x="85" y="932" type="line"/>
      <point x="-85" y="932" type="line"/>
    </contour>
    <contour>
      <point x="136" y="877" type="line"/>
      <point x="243" y="877" type="line"/>
      <point x="371" y="1027" type="line"/>
      <point x="216" y="1027" type="line"/>
    </contour>
  </outline>
</glyph>
<glyph name="circumflexcomb_acutecomb" format="2">
  <anchor x="0" y="484" name="_top"/>
  <outline>
    <contour>
      <point x="-197" y="558" type="line"/>
      <point x="-73" y="558" type="line"/>
      <point x="0" y="626" type="line"/>
      <point x="73" y="558" type="line"/>
      <point x="197" y="558" type="line"/>
      <point x="85" y="725" type="line"/>
      <point x="-85" y="725" type="line"/>
    </contour>
    <contour>
      <point x="136" y="670" type="line"/>
      <point x="243" y="670" type="line"/>
      <point x="371" y="820" type="line"/>
      <point x="216" y="820" type="line"/>
    </contour>
  </outline>
</glyph>
<glyph name="dieresiscomb_acutecomb" format="2">
  <anchor x="0" y="484" name="_top"/>
  <outline>
    <contour>
      <point x="-60" y="705" type="line"/>
      <point x="60" y="705" type="line"/>
      <point x="173" y="820" type="line"/>
      <point x="-12" y="820" type="line"/>
    </contour>
    <contour>
      <point x="-192" y="558" type="line"/>
      <point x="-24" y="558" type="line"/>
      <point x="-24" y="673" type="line"/>
      <point x="-192" y="673" type="line"/>
    </contour>
    <contour>
      <point x="24" y="558" type="line"/>
      <point x="192" y="558" type="line"/>
      <point x="192" y="673" type="line"/>
      <point x="24" y="673" type="line"/>
    </contour>
  </outline>
</glyph>
<glyph name="dotaccentcomb_macroncomb.case" format="2">
  <anchor x="0" y="705" name="_top"/>
  <outline>
    <contour>
      <point x="-175" y="921" type="line"/>
      <point x="175" y="921" type="line"/>
      <point x="175" y="1031" type="line"/>
      <point x="-175" y="1031" type="line"/>
    </contour>
    <contour>
      <point x="-84" y="769" type="line"/>
      <point x="84" y="769" type="line"/>
      <point x="84" y="884" type="line"/>
      <point x="-84" y="884" type="line"/>
    </contour>
  </outline>
</glyph>
<glyph name="ghestroke-cy.loclBSH" format="2">
  <advance width="500"/>
  <outline>
    <contour>
      <point x="54" y="0" type="line"/>
      <point x="262" y="0" type="line"/>
      <point x="262" y="136" type="line"/>
      <point x="422" y="136" type="line"/>
      <point x="422" y="276" type="line"/>
      <point x="262" y="276" type="line"/>
      <point x="262" y="334" type="line"/>
      <point x="479" y="334" type="line"/>
      <point x="479" y="494" type="line"/>
      <point x="54" y="494" type="line"/>
    </contour>
  </outline>
</glyph>
<glyph name="macroncomb_dieresiscomb" format="2">
  <anchor x="0" y="484" name="_top"/>
  <outline>
    <contour>
      <point x="-175" y="558" type="line"/>
      <point x="175" y="558" type="line"/>
      <point x="175" y="668" type="line"/>
      <point x="-175" y="668" type="line"/>
    </contour>
    <contour>
      <point x="-192" y="705" type="line"/>
      <point x="-24" y="705" type="line"/>
      <point x="-24" y="820" type="line"/>
      <point x="-192" y="820" type="line"/>
    </contour>
    <contour>
      <point x="24" y="705" type="line"/>
      <point x="192" y="705" type="line"/>
      <point x="192" y="820" type="line"/>
      <point x="24" y="820" type="line"/>
    </contour>
  </outline>
</glyph>
<glyph name="macroncomb_gravecomb.case" format="2">
  <anchor x="0" y="705" name="_top"/>
  <outline>
    <contour>
      <point x="-60" y="916" type="line"/>
      <point x="60" y="916" type="line"/>
      <point x="12" y="1031" type="line"/>
      <point x="-173" y="1031" type="line"/>
    </contour>
    <contour>
      <point x="-175" y="769" type="line"/>
      <point x="175" y="769" type="line"/>
      <point x="175" y="879" type="line"/>
      <point x="-175" y="879" type="line"/>
    </contour>
  </outline>
</glyph>
<glyph name="tildecomb_dieresiscomb" format="2">
  <anchor x="0" y="484" name="_top"/>
  <outline>
    <contour>
      <point x="-115" y="555" type="line"/>
      <point x="-109" y="573"/>
      <point x="-93" y="583"/>
      <point x="-62" y="583" type="curve" smooth="yes"/>
      <point x="-49" y="583"/>
      <point x="-30" y="577"/>
      <point x="-12" y="571" type="curve" smooth="yes"/>
      <point x="12" y="563"/>
      <point x="41" y="554"/>
      <point x="69" y="554" type="curve" smooth="yes"/>
      <point x="140" y="554"/>
      <point x="194" y="595"/>
      <point x="198" y="674" type="curve"/>
      <point x="115" y="679" type="line"/>
      <point x="109" y="660"/>
      <point x="93" y="651"/>
      <point x="62" y="651" type="curve" smooth="yes"/>
      <point x="47" y="651"/>
      <point x="29" y="656"/>
      <point x="7" y="664" type="curve" smooth="yes"/>
      <point x="-16" y="672"/>
      <point x="-41" y="679"/>
      <point x="-69" y="679" type="curve" smooth="yes"/>
      <point x="-140" y="679"/>
      <point x="-194" y="638"/>
      <point x="-198" y="559" type="curve"/>
    </contour>
    <contour>
      <point x="-192" y="705" type="line"/>
      <point x="-24" y="705" type="line"/>
      <point x="-24" y="820" type="line"/>
      <point x="-192" y="820" type="line"/>
    </contour>
    <contour>
      <point x="24" y="705" type="line"/>
      <point x="192" y="705" type="line"/>
      <point x="192" y="820" type="line"/>
      <point x="24" y="820" type="line"/>
    </contour>
  </outline>
</glyph>
<glyph name="two.tosf" format="2">
  <advance width="600"/>
  <outline>
    <contour>
      <point x="61" y="0" type="line"/>
      <point x="548" y="0" type="line"/>
      <point x="548" y="152" type="line"/>
      <point x="237" y="152" type="line"/>
      <point x="237" y="124" type="line"/>
      <point x="429" y="164"/>
      <point x="532" y="234"/>
      <point x="532" y="344" type="curve" smooth="yes"/>
      <point x="532" y="447"/>
      <point x="443" y="506"/>
      <point x="291" y="506" type="curve" smooth="yes"/>
      <point x="196" y="506"/>
      <point x="101" y="481"/>
      <point x="40" y="445" type="curve"/>
      <point x="92" y="301" type="line"/>
      <point x="142" y="332"/>
      <point x="210" y="351"/>
      <point x="259" y="351" type="curve" smooth="yes"/>
      <point x="298" y="351"/>
      <point x="323" y="342"/>
      <point x="323" y="318" type="curve" smooth="yes"/>
      <point x="323" y="274"/>
      <point x="252" y="224"/>
      <point x="61" y="135" type="curve"/>
    </contour>
  </outline>
</glyph>
